<svg xmlns="http://www.w3.org/2000/svg" viewBox="0 0 512 512" role="img" aria-labelledby="title desc">
  <title id="title">Kannada Words Match app icon</title>
  <desc id="desc">Warm rounded square icon with a Kannada-inspired monogram and matching tiles motif.</desc>
  <defs>
    <linearGradient id="bg" x1="0%" y1="0%" x2="100%" y2="100%">
      <stop offset="0%" stop-color="#fff7ec"/>
      <stop offset="100%" stop-color="#f2dfc9"/>
    </linearGradient>
    <linearGradient id="accent" x1="0%" y1="0%" x2="100%" y2="100%">
      <stop offset="0%" stop-color="#ad6938"/>
      <stop offset="100%" stop-color="#9d5c2f"/>
    </linearGradient>
  </defs>
  <rect width="512" height="512" rx="112" fill="url(#bg)"/>
  <rect x="86" y="96" width="340" height="320" rx="70" fill="#fffdf9" stroke="#dbcdb3" stroke-width="10"/>
  <rect x="118" y="148" width="130" height="88" rx="26" fill="#f7efe5" stroke="#dbcdb3" stroke-width="8"/>
  <rect x="264" y="148" width="130" height="88" rx="26" fill="#dff3df" stroke="#67956b" stroke-width="8"/>
  <rect x="118" y="260" width="130" height="88" rx="26" fill="#f7efe5" stroke="#dbcdb3" stroke-width="8"/>
  <rect x="264" y="260" width="130" height="88" rx="26" fill="#fff5e8" stroke="#9d5c2f" stroke-width="8"/>
  <path d="M186 330c0-45 33-79 83-79 27 0 47 9 62 26l-26 24c-10-10-20-14-34-14-26 0-43 17-43 43 0 26 17 44 43 44 14 0 24-4 34-14l26 24c-15 17-35 26-62 26-50 0-83-35-83-80Z" fill="url(#accent)"/>
</svg>
